<svg width="20" height="13" viewBox="0 0 20 13" fill="none" xmlns="http://www.w3.org/2000/svg">
<path d="M8.57893 11.6265C8.47777 11.525 8.39239 11.4149 8.31814 11.299L0.567092 3.5477C-0.188748 2.79151 -0.189107 1.56467 0.567451 0.808117C1.32365 0.0515661 2.55014 0.0515662 3.30706 0.808117L9.98263 7.48363L16.693 0.77368C17.4492 0.0171282 18.6753 0.0171282 19.4326 0.77368C19.8114 1.15213 20.0001 1.64825 20.0001 2.14329C20.0001 2.63833 19.8114 3.13481 19.4326 3.5129L11.6457 11.299C11.5714 11.4149 11.4861 11.5257 11.3849 11.6265C10.9982 12.0133 10.4888 12.1998 9.98192 12.1905C9.47503 12.1998 8.966 12.0133 8.57893 11.6265Z" />
</svg>
