<svg width="20" height="20" viewBox="0 0 20 20" fill="none" xmlns="http://www.w3.org/2000/svg">
<path d="M10 0C4.486 0 0 4.486 0 10C0 15.514 4.486 20 10 20C15.514 20 20 15.514 20 10C20 4.486 15.514 0 10 0ZM10 18C5.589 18 2 14.411 2 10C2 5.589 5.589 2 10 2C14.411 2 18 5.589 18 10C18 14.411 14.411 18 10 18Z"/>
<path d="M13.043 6.79301L8.75001 11.086L6.95701 9.29301C6.56601 8.90201 5.93401 8.90201 5.54301 9.29301C5.15201 9.68401 5.15201 10.316 5.54301 10.707L8.04301 13.207C8.23801 13.402 8.49401 13.5 8.75001 13.5C9.00601 13.5 9.26201 13.402 9.45701 13.207L14.457 8.20701C14.848 7.81601 14.848 7.18401 14.457 6.79301C14.066 6.40201 13.434 6.40201 13.043 6.79301Z"/>
</svg>
