<svg width="10" height="10" viewBox="0 0 10 10" fill="none" xmlns="http://www.w3.org/2000/svg">
<path d="M9.63352 0.366307C9.14478 -0.122428 8.35481 -0.122428 7.86607 0.366307L4.99991 3.23247L2.13375 0.366307C1.64502 -0.122428 0.855042 -0.122428 0.366307 0.366307C-0.122428 0.855042 -0.122428 1.64502 0.366307 2.13375L3.23247 4.99991L0.366307 7.86607C-0.122428 8.35481 -0.122428 9.14478 0.366307 9.63352C0.610049 9.87726 0.930039 9.99976 1.25003 9.99976C1.57002 9.99976 1.89001 9.87726 2.13375 9.63352L4.99991 6.76736L7.86607 9.63352C8.10982 9.87726 8.4298 9.99976 8.74979 9.99976C9.06979 9.99976 9.38978 9.87726 9.63352 9.63352C10.1223 9.14478 10.1223 8.35481 9.63352 7.86607L6.76736 4.99991L9.63352 2.13375C10.1223 1.64502 10.1223 0.855042 9.63352 0.366307Z"/>
</svg>
