<svg width="20" height="20" viewBox="0 0 20 20" fill="none" xmlns="http://www.w3.org/2000/svg">
<path d="M10 0C4.486 0 0 4.486 0 10C0 15.514 4.486 20 10 20C15.514 20 20 15.514 20 10C20 4.486 15.514 0 10 0ZM10 18C5.589 18 2 14.411 2 10C2 5.589 5.589 2 10 2C14.411 2 18 5.589 18 10C18 14.411 14.411 18 10 18Z" />
<path d="M10 5C9.447 5 9 5.448 9 6V11C9 11.552 9.447 12 10 12C10.553 12 11 11.552 11 11V6C11 5.448 10.553 5 10 5Z" />
<path d="M10 13C9.74 13 9.48 13.11 9.29 13.29C9.109 13.48 9 13.74 9 14C9 14.26 9.109 14.52 9.29 14.71C9.67 15.08 10.33 15.08 10.71 14.71C10.89 14.52 11 14.26 11 14C11 13.74 10.89 13.48 10.71 13.29C10.52 13.11 10.26 13 10 13Z"/>
</svg>
