<svg width="20" height="20" viewBox="0 0 20 20" fill="none" xmlns="http://www.w3.org/2000/svg">
<path fill-rule="evenodd" clip-rule="evenodd" d="M10 0C4.486 0 0 4.486 0 10C0 15.514 4.486 20 10 20C15.514 20 20 15.514 20 10C20 4.486 15.514 0 10 0ZM10 18C5.589 18 2 14.411 2 10C2 5.589 5.589 2 10 2C14.411 2 18 5.589 18 10C18 14.411 14.411 18 10 18ZM10 8C9.448 8 9 8.448 9 9V14C9 14.552 9.448 15 10 15C10.552 15 11 14.552 11 14V9C11 8.448 10.552 8 10 8ZM9 6.00001C9 5.74001 9.11 5.48001 9.29 5.29001C9.67 4.92001 10.33 4.92001 10.71 5.29001C10.89 5.48001 11 5.74001 11 6.00001C11 6.26001 10.89 6.52001 10.71 6.71001C10.52 6.89001 10.26 7.00001 10 7.00001C9.74 7.00001 9.48 6.89001 9.29 6.71001C9.11 6.52001 9 6.26001 9 6.00001Z"/>
</svg>
