<svg width="22" height="21" viewBox="0 0 22 21" fill="none" xmlns="http://www.w3.org/2000/svg">
<path d="M11 7.01294C10.447 7.01294 10 7.45994 10 8.01294V13.0129C10 13.5659 10.447 14.0129 11 14.0129C11.553 14.0129 12 13.5659 12 13.0129V8.01294C12 7.45994 11.553 7.01294 11 7.01294Z" />
<path d="M11 15.0129C10.74 15.0129 10.48 15.1229 10.29 15.3029C10.109 15.4929 10 15.7529 10 16.0129C10 16.2729 10.109 16.5329 10.29 16.7229C10.67 17.0929 11.33 17.0929 11.71 16.7229C11.89 16.5329 12 16.2729 12 16.0129C12 15.7529 11.89 15.4929 11.71 15.3029C11.52 15.1229 11.26 15.0129 11 15.0129Z"/>
<path d="M20.534 15.9919L13.738 2.98091C12.829 1.24291 11.633 0.98291 11 0.98291C10.367 0.98291 9.17103 1.24291 8.26103 2.98191L1.46703 15.9909C0.815028 17.2379 0.778028 18.5079 1.36303 19.4749C1.94903 20.4439 3.09303 20.9999 4.50003 20.9999H17.5C18.907 20.9999 20.051 20.4439 20.637 19.4759C21.223 18.5079 21.186 17.2379 20.534 15.9919V15.9919ZM18.926 18.4399C18.711 18.7959 18.19 18.9999 17.5 18.9999H4.50003C3.81003 18.9999 3.28903 18.7959 3.07403 18.4399C2.85803 18.0849 2.91903 17.5299 3.23903 16.9179L10.033 3.90891C10.391 3.22691 10.767 2.98291 11 2.98291C11.233 2.98291 11.609 3.22591 11.966 3.90791L18.762 16.9189C19.081 17.5299 19.142 18.0849 18.926 18.4399V18.4399Z"/>
</svg>
